<svg width="71" height="73" viewBox="0 0 71 73" fill="none" xmlns="http://www.w3.org/2000/svg">
<path d="M0.14775 19.4855C-0.184687 24.168 0.14775 39.8879 0.14775 39.8879L14.11 39.8879V25.5059C13.8884 22.6072 15.3068 16.676 22.7533 16.1409C30.1999 15.6057 32.2831 22.1612 32.394 25.5059V39.8879H49.0157C51.3428 40.5569 56.0633 43.3664 56.3293 49.253C56.5952 55.1395 51.3428 57.9491 48.6833 58.618H32.394V73H47.0211C58.9888 72.6655 71.8447 62.9175 70.9564 48.9185C70.624 28.8506 53.6698 26.1748 47.0211 25.5059C47.4644 20.7119 45.8243 9.5853 35.7183 3.43114C25.6123 -2.72303 13.8503 0.755376 9.86111 3.43112C3.54484 7.44478 0.480186 14.803 0.14775 19.4855Z" fill="white"/>
<path d="M14.11 58.618H0.14775V73H14.11V58.618Z" fill="white"/>
</svg>
